{"asset":{"version":"2.0","generator":"THREE.GLTFExporter"},"scenes":[{"name":"default","nodes":[0]}],"scene":0,"nodes":[{"name":"building_bridge","extras":{"data":{"name":"building_bridge","points":[{"name":"Origin","pos":{"x":0,"y":0,"z":0}}],"billboard":{"enabled":false,"y":false},"directional":{"enabled":false,"mode":"cameraAngle","angles":[]},"custom":[],"instances":[{"name":"building_bridge","uuid":"F57E22DB-A682-40AB-8188-B3B82039B172","parent":null,"pos":{"x":-29,"y":8,"z":20},"rot":{"x":0,"y":0,"z":0,"order":"XYZ"},"sca":{"x":1,"y":1,"z":1},"custom":[]}]}},"mesh":0}],"bufferViews":[{"buffer":0,"byteOffset":0,"byteLength":6132,"target":34962,"byteStride":12},{"buffer":0,"byteOffset":6132,"byteLength":6132,"target":34962,"byteStride":12},{"buffer":0,"byteOffset":12264,"byteLength":4088,"target":34962,"byteStride":8},{"buffer":0,"byteOffset":16352,"byteLength":1728,"target":34963}],"buffers":[{"byteLength":18080,"uri":"data:application/octet-stream;base64,"}],"accessors":[{"bufferView":0,"componentType":5126,"count":511,"max":[0,3,1],"min":[-6,-3,-3],"type":"VEC3"},{"bufferView":1,"componentType":5126,"count":511,"max":[1,1,1],"min":[-1,-1,-1],"type":"VEC3"},{"bufferView":2,"componentType":5126,"count":511,"max":[0.7272727489471436,0.625],"min":[0,0.125],"type":"VEC2"},{"bufferView":3,"componentType":5123,"count":864,"max":[510],"min":[0],"type":"SCALAR"}],"materials":[{"pbrMetallicRoughness":{"metallicFactor":0,"roughnessFactor":1,"baseColorTexture":{"index":0}},"alphaMode":"MASK","alphaCutoff":0.01,"doubleSided":true,"name":"texture_kenney_retro-1"}],"textures":[{"sampler":0,"source":0,"name":"texture_kenney_retro-1"}],"samplers":[{"magFilter":9728,"minFilter":9728,"wrapS":33071,"wrapT":33071}],"images":[{"mimeType":"image/png","uri":"texture_kenney_retro-1.png"}],"meshes":[{"primitives":[{"mode":4,"attributes":{"POSITION":0,"NORMAL":1,"TEXCOORD_0":2},"indices":3,"material":0}]}]}