{"asset":{"version":"2.0","generator":"THREE.GLTFExporter"},"scenes":[{"name":"default","nodes":[0]}],"scene":0,"nodes":[{"name":"building_a","extras":{"data":{"name":"building_a","points":[{"name":"Origin","pos":{"x":0,"y":0,"z":0}}],"billboard":{"enabled":false,"y":false},"directional":{"enabled":false,"mode":"cameraAngle","angles":[{"suffix":"_S","angle":0,"enabled":true,"min":-22.5,"max":22.5},{"suffix":"_SW","angle":45,"enabled":true,"min":22.5,"max":67.5},{"suffix":"_W","angle":90,"enabled":true,"min":67.5,"max":112.5},{"suffix":"_NW","angle":135,"enabled":true,"min":112.5,"max":157.5},{"suffix":"_N","angle":180,"enabled":true,"min":157.5,"max":202.5},{"suffix":"_NE","angle":225,"enabled":true,"min":202.5,"max":247.5},{"suffix":"_E","angle":270,"enabled":true,"min":247.5,"max":292.5},{"suffix":"_SE","angle":315,"enabled":true,"min":292.5,"max":337.5}]},"custom":[],"instances":[{"name":"building_a","uuid":"C1B496C4-D00A-49D0-AEBC-4BB48E3A3B66","parent":null,"pos":{"x":16,"y":0,"z":12},"rot":{"x":0,"y":0,"z":0,"order":"XYZ"},"sca":{"x":1,"y":1,"z":1},"custom":[]}]}},"mesh":0}],"bufferViews":[{"buffer":0,"byteOffset":0,"byteLength":15360,"target":34962,"byteStride":12},{"buffer":0,"byteOffset":15360,"byteLength":15360,"target":34962,"byteStride":12},{"buffer":0,"byteOffset":30720,"byteLength":10240,"target":34962,"byteStride":8},{"buffer":0,"byteOffset":40960,"byteLength":3756,"target":34963}],"buffers":[{"byteLength":44716,"uri":"data:application/octet-stream;base64,"}],"accessors":[{"bufferView":0,"componentType":5126,"count":1280,"max":[6.125,8.25,6.25],"min":[-0.125,-1,-0.25],"type":"VEC3"},{"bufferView":1,"componentType":5126,"count":1280,"max":[1,1,1],"min":[-1,-1,-1],"type":"VEC3"},{"bufferView":2,"componentType":5126,"count":1280,"max":[0.9090909361839294,0.875],"min":[0,0],"type":"VEC2"},{"bufferView":3,"componentType":5123,"count":1878,"max":[1279],"min":[0],"type":"SCALAR"}],"materials":[{"pbrMetallicRoughness":{"metallicFactor":0,"roughnessFactor":1,"baseColorTexture":{"index":0}},"alphaMode":"MASK","alphaCutoff":0.01,"doubleSided":true,"name":"texture_kenney_retro-1"}],"textures":[{"sampler":0,"source":0,"name":"texture_kenney_retro-1"}],"samplers":[{"magFilter":9728,"minFilter":9728,"wrapS":33071,"wrapT":33071}],"images":[{"mimeType":"image/png","uri":"texture_kenney_retro-1.png"}],"meshes":[{"primitives":[{"mode":4,"attributes":{"POSITION":0,"NORMAL":1,"TEXCOORD_0":2},"indices":3,"material":0}]}]}