{"asset":{"version":"2.0","generator":"THREE.GLTFExporter"},"scenes":[{"name":"default","nodes":[0]}],"scene":0,"nodes":[{"name":"dock","extras":{"data":{"name":"dock","points":[{"name":"Origin","pos":{"x":0,"y":0,"z":0}}],"billboard":{"enabled":false,"y":false},"directional":{"enabled":false,"mode":"cameraAngle","angles":[]},"custom":[],"instances":[{"name":"dock","uuid":"59462F52-8C67-445F-BC5E-9F8428DA4FE5","parent":null,"pos":{"x":28,"y":0,"z":-16},"rot":{"x":0,"y":0,"z":0,"order":"XYZ"},"sca":{"x":1,"y":1,"z":1},"custom":[]}]}},"mesh":0}],"bufferViews":[{"buffer":0,"byteOffset":0,"byteLength":3960,"target":34962,"byteStride":12},{"buffer":0,"byteOffset":3960,"byteLength":3960,"target":34962,"byteStride":12},{"buffer":0,"byteOffset":7920,"byteLength":2640,"target":34962,"byteStride":8},{"buffer":0,"byteOffset":10560,"byteLength":996,"target":34963}],"buffers":[{"byteLength":11556,"uri":"data:application/octet-stream;base64,"}],"accessors":[{"bufferView":0,"componentType":5126,"count":330,"max":[3,0.5,0],"min":[0,-1.5,-4],"type":"VEC3"},{"bufferView":1,"componentType":5126,"count":330,"max":[1,1,1],"min":[-1,-1,-1],"type":"VEC3"},{"bufferView":2,"componentType":5126,"count":330,"max":[0.7272727489471436,0.75],"min":[0.1818181872367859,0.25],"type":"VEC2"},{"bufferView":3,"componentType":5123,"count":498,"max":[329],"min":[0],"type":"SCALAR"}],"materials":[{"pbrMetallicRoughness":{"metallicFactor":0,"roughnessFactor":1,"baseColorTexture":{"index":0}},"alphaMode":"MASK","alphaCutoff":0.01,"doubleSided":true,"name":"texture_kenney_retro-1"}],"textures":[{"sampler":0,"source":0,"name":"texture_kenney_retro-1"}],"samplers":[{"magFilter":9728,"minFilter":9728,"wrapS":33071,"wrapT":33071}],"images":[{"mimeType":"image/png","uri":"texture_kenney_retro-1.png"}],"meshes":[{"primitives":[{"mode":4,"attributes":{"POSITION":0,"NORMAL":1,"TEXCOORD_0":2},"indices":3,"material":0}]}]}