{"asset":{"version":"2.0","generator":"THREE.GLTFExporter"},"scenes":[{"name":"default","nodes":[0]}],"scene":0,"nodes":[{"name":"hay_a","extras":{"data":{"name":"hay_a","points":[{"name":"Origin","pos":{"x":0,"y":0,"z":0}}],"billboard":{"enabled":false,"y":false},"directional":{"enabled":false,"mode":"cameraAngle","angles":[]},"custom":[],"instances":[{"name":"hay_a","uuid":"B68C8304-919B-4E6E-ADA2-8D3924347DCA","parent":null,"pos":{"x":-4,"y":-4,"z":-32},"rot":{"x":0,"y":0,"z":0,"order":"XYZ"},"sca":{"x":1,"y":1,"z":1},"custom":[]}]}},"mesh":0}],"bufferViews":[{"buffer":0,"byteOffset":0,"byteLength":1344,"target":34962,"byteStride":12},{"buffer":0,"byteOffset":1344,"byteLength":1344,"target":34962,"byteStride":12},{"buffer":0,"byteOffset":2688,"byteLength":896,"target":34962,"byteStride":8},{"buffer":0,"byteOffset":3584,"byteLength":240,"target":34963}],"buffers":[{"byteLength":3824,"uri":"data:application/octet-stream;base64,"}],"accessors":[{"bufferView":0,"componentType":5126,"count":112,"max":[2,1.125,1],"min":[-1,0,-2],"type":"VEC3"},{"bufferView":1,"componentType":5126,"count":112,"max":[0.8944271802902222,1,0.9428090453147888],"min":[-0.9477581977844238,0.10101525485515594,-0.8581163287162781],"type":"VEC3"},{"bufferView":2,"componentType":5126,"count":112,"max":[0.4545454680919647,0.375],"min":[0.3636363744735718,0.3125],"type":"VEC2"},{"bufferView":3,"componentType":5123,"count":120,"max":[111],"min":[0],"type":"SCALAR"}],"materials":[{"pbrMetallicRoughness":{"metallicFactor":0,"roughnessFactor":1,"baseColorTexture":{"index":0}},"alphaMode":"MASK","alphaCutoff":0.01,"doubleSided":true,"name":"texture_kenney_retro-1"}],"textures":[{"sampler":0,"source":0,"name":"texture_kenney_retro-1"}],"samplers":[{"magFilter":9728,"minFilter":9728,"wrapS":33071,"wrapT":33071}],"images":[{"mimeType":"image/png","uri":"texture_kenney_retro-1.png"}],"meshes":[{"primitives":[{"mode":4,"attributes":{"POSITION":0,"NORMAL":1,"TEXCOORD_0":2},"indices":3,"material":0}]}]}