{"asset":{"version":"2.0","generator":"THREE.GLTFExporter"},"scenes":[{"name":"default","nodes":[0]}],"scene":0,"nodes":[{"name":"hay_b","extras":{"data":{"name":"hay_b","points":[{"name":"Origin","pos":{"x":0,"y":0,"z":0}}],"billboard":{"enabled":false,"y":false},"directional":{"enabled":false,"mode":"cameraAngle","angles":[]},"custom":[],"instances":[{"name":"hay_b","uuid":"A73A01F6-F7E5-4BD0-A0B5-8E6E395D85A6","parent":null,"pos":{"x":-16,"y":-4,"z":-32},"rot":{"x":0,"y":0,"z":0,"order":"XYZ"},"sca":{"x":1,"y":1,"z":1},"custom":[]}]}},"mesh":0}],"bufferViews":[{"buffer":0,"byteOffset":0,"byteLength":624,"target":34962,"byteStride":12},{"buffer":0,"byteOffset":624,"byteLength":624,"target":34962,"byteStride":12},{"buffer":0,"byteOffset":1248,"byteLength":416,"target":34962,"byteStride":8},{"buffer":0,"byteOffset":1664,"byteLength":108,"target":34963}],"buffers":[{"byteLength":1772,"uri":"data:application/octet-stream;base64,"}],"accessors":[{"bufferView":0,"componentType":5126,"count":52,"max":[0.75,0.75,1],"min":[-0.875,0,-1],"type":"VEC3"},{"bufferView":1,"componentType":5126,"count":52,"max":[0.8944271802902222,0.9370425939559937,0.8164966106414795],"min":[-0.8664485812187195,0.40824830532073975,-0.7155417799949646],"type":"VEC3"},{"bufferView":2,"componentType":5126,"count":52,"max":[0.4545454680919647,0.375],"min":[0.3636363744735718,0.3125],"type":"VEC2"},{"bufferView":3,"componentType":5123,"count":54,"max":[51],"min":[0],"type":"SCALAR"}],"materials":[{"pbrMetallicRoughness":{"metallicFactor":0,"roughnessFactor":1,"baseColorTexture":{"index":0}},"alphaMode":"MASK","alphaCutoff":0.01,"doubleSided":true,"name":"texture_kenney_retro-1"}],"textures":[{"sampler":0,"source":0,"name":"texture_kenney_retro-1"}],"samplers":[{"magFilter":9728,"minFilter":9728,"wrapS":33071,"wrapT":33071}],"images":[{"mimeType":"image/png","uri":"texture_kenney_retro-1.png"}],"meshes":[{"primitives":[{"mode":4,"attributes":{"POSITION":0,"NORMAL":1,"TEXCOORD_0":2},"indices":3,"material":0}]}]}