{"asset":{"version":"2.0","generator":"THREE.GLTFExporter"},"scenes":[{"name":"default","nodes":[0]}],"scene":0,"nodes":[{"name":"building_b","extras":{"data":{"name":"building_b","points":[{"name":"Origin","pos":{"x":0,"y":0,"z":0}}],"billboard":{"enabled":false,"y":false},"directional":{"enabled":false,"mode":"cameraAngle","angles":[]},"custom":[],"instances":[{"name":"building_b","uuid":"233A27DB-F849-4B3F-8AEE-FDD27D4FF192","parent":null,"pos":{"x":0,"y":0,"z":12},"rot":{"x":0,"y":0,"z":0,"order":"XYZ"},"sca":{"x":1,"y":1,"z":1},"custom":[]}]}},"mesh":0}],"bufferViews":[{"buffer":0,"byteOffset":0,"byteLength":9144,"target":34962,"byteStride":12},{"buffer":0,"byteOffset":9144,"byteLength":9144,"target":34962,"byteStride":12},{"buffer":0,"byteOffset":18288,"byteLength":6096,"target":34962,"byteStride":8},{"buffer":0,"byteOffset":24384,"byteLength":2400,"target":34963}],"buffers":[{"byteLength":26784,"uri":"data:application/octet-stream;base64,"}],"accessors":[{"bufferView":0,"componentType":5126,"count":762,"max":[0.125,6,3.375],"min":[-3.125,-1,-0.5],"type":"VEC3"},{"bufferView":1,"componentType":5126,"count":762,"max":[1,1,1],"min":[-1,-1,-1],"type":"VEC3"},{"bufferView":2,"componentType":5126,"count":762,"max":[1,0.875],"min":[0.27272728085517883,0],"type":"VEC2"},{"bufferView":3,"componentType":5123,"count":1200,"max":[761],"min":[0],"type":"SCALAR"}],"materials":[{"pbrMetallicRoughness":{"metallicFactor":0,"roughnessFactor":1,"baseColorTexture":{"index":0}},"alphaMode":"MASK","alphaCutoff":0.01,"doubleSided":true,"name":"texture_kenney_retro-1"}],"textures":[{"sampler":0,"source":0,"name":"texture_kenney_retro-1"}],"samplers":[{"magFilter":9728,"minFilter":9728,"wrapS":33071,"wrapT":33071}],"images":[{"mimeType":"image/png","uri":"texture_kenney_retro-1.png"}],"meshes":[{"primitives":[{"mode":4,"attributes":{"POSITION":0,"NORMAL":1,"TEXCOORD_0":2},"indices":3,"material":0}]}]}