{"asset":{"version":"2.0","generator":"THREE.GLTFExporter"},"scenes":[{"name":"default","nodes":[0]}],"scene":0,"nodes":[{"name":"road_a","extras":{"data":{"name":"road_a","points":[{"name":"Origin","pos":{"x":0,"y":0,"z":0}}],"billboard":{"enabled":false,"y":false},"directional":{"enabled":false,"mode":"cameraAngle","angles":[]},"custom":[],"instances":[{"name":"road_a","uuid":"62833A99-FD8D-44BA-8AC1-2E6E43A476D4","parent":null,"pos":{"x":40,"y":0,"z":4},"rot":{"x":0,"y":0,"z":0,"order":"XYZ"},"sca":{"x":1,"y":1,"z":1},"custom":[]}]}},"mesh":0}],"bufferViews":[{"buffer":0,"byteOffset":0,"byteLength":3408,"target":34962,"byteStride":12},{"buffer":0,"byteOffset":3408,"byteLength":3408,"target":34962,"byteStride":12},{"buffer":0,"byteOffset":6816,"byteLength":2272,"target":34962,"byteStride":8},{"buffer":0,"byteOffset":9088,"byteLength":912,"target":34963}],"buffers":[{"byteLength":10000,"uri":"data:application/octet-stream;base64,"}],"accessors":[{"bufferView":0,"componentType":5126,"count":284,"max":[0,0,1],"min":[-10,-1,-2],"type":"VEC3"},{"bufferView":1,"componentType":5126,"count":284,"max":[1,1,1],"min":[-1,0,-1],"type":"VEC3"},{"bufferView":2,"componentType":5126,"count":284,"max":[0.8181818127632141,0.5625],"min":[0,0],"type":"VEC2"},{"bufferView":3,"componentType":5123,"count":456,"max":[283],"min":[0],"type":"SCALAR"}],"materials":[{"pbrMetallicRoughness":{"metallicFactor":0,"roughnessFactor":1,"baseColorTexture":{"index":0}},"alphaMode":"MASK","alphaCutoff":0.01,"doubleSided":true,"name":"texture_kenney_retro-1"}],"textures":[{"sampler":0,"source":0,"name":"texture_kenney_retro-1"}],"samplers":[{"magFilter":9728,"minFilter":9728,"wrapS":33071,"wrapT":33071}],"images":[{"mimeType":"image/png","uri":"texture_kenney_retro-1.png"}],"meshes":[{"primitives":[{"mode":4,"attributes":{"POSITION":0,"NORMAL":1,"TEXCOORD_0":2},"indices":3,"material":0}]}]}