# Blender 5.0.1
# www.blender.org
o BézierCurve
v -0.375128 -0.324987 -0.823432
v -0.375128 0.324987 -0.823432
v -0.740579 -0.324987 -0.975515
v -0.740579 0.324987 -0.975515
v -1.067118 -0.324987 -1.176663
v -1.067118 0.324987 -1.176663
v -1.341066 -0.324987 -1.388297
v -1.341066 0.324987 -1.388297
v -1.577767 -0.324987 -1.587025
v -1.577767 0.324987 -1.587025
v -1.914945 0.000000 -0.966073
v -0.375127 -0.028196 0.782071
v -0.741851 -0.028994 0.600998
v -1.090595 -0.029778 0.369499
v -1.412057 -0.032582 -0.027869
v -1.702313 -0.035086 -0.419000
v -1.914945 0.324987 -1.910679
v -1.914945 -0.324987 -1.910679
v -0.000000 -0.324987 -0.763122
v -0.000000 0.324987 -0.763122
v 0.375127 -0.324987 -0.823433
v 0.375127 0.324987 -0.823433
v 0.740578 -0.324987 -0.975516
v 0.740579 0.324987 -0.975516
v 1.067117 -0.324987 -1.176664
v 1.067117 0.324987 -1.176664
v 1.341065 -0.324987 -1.388298
v 1.341065 0.324987 -1.388298
v 1.577766 -0.324987 -1.587026
v 1.577766 0.324987 -1.587026
v 1.914944 0.000000 -0.966074
v 0.000000 -0.027887 0.854819
v 0.375128 -0.028196 0.782071
v 0.741851 -0.028994 0.600998
v 1.090596 -0.029778 0.369499
v 1.412057 -0.032582 -0.027870
v 1.702313 -0.035086 -0.419002
v 1.914944 0.324987 -1.910680
v 1.914944 -0.324987 -1.910680
vn -0.0609 -0.9814 0.1820
vn -0.0737 0.9738 0.2151
vn -0.1042 -0.9775 0.1834
vn -0.1259 0.9680 0.2173
vn -0.1655 -0.9683 0.1873
vn -0.2040 0.9534 0.2225
vn -0.2118 -0.9570 0.1983
vn -0.2630 0.9352 0.2370
vn -0.3609 -0.9056 0.2229
vn -0.3384 0.9044 0.2599
vn -0.8439 0.0443 0.5347
vn -0.2750 -0.0160 0.9613
vn -0.4591 -0.0192 0.8882
vn -0.5944 -0.0199 0.8039
vn -0.7226 -0.0311 0.6905
vn -0.7713 -0.0474 0.6347
vn -0.3666 0.8912 0.2674
vn -0.4210 -0.8773 0.2305
vn -0.0000 -0.9834 0.1812
vn -0.0000 0.9768 0.2140
vn 0.0609 -0.9814 0.1820
vn 0.0737 0.9738 0.2151
vn 0.1042 -0.9775 0.1834
vn 0.1259 0.9680 0.2173
vn 0.1655 -0.9683 0.1873
vn 0.2040 0.9534 0.2225
vn 0.2118 -0.9570 0.1983
vn 0.2630 0.9352 0.2370
vn 0.3609 -0.9056 0.2229
vn 0.3384 0.9044 0.2599
vn 0.8439 0.0443 0.5347
vn -0.0000 -0.0144 0.9999
vn 0.2750 -0.0160 0.9613
vn 0.4591 -0.0192 0.8882
vn 0.5944 -0.0199 0.8039
vn 0.7226 -0.0311 0.6905
vn 0.7713 -0.0474 0.6347
vn 0.3666 0.8912 0.2674
vn 0.4210 -0.8773 0.2305
vt 0.944481 1.000000
vt 0.911962 0.000000
vt 0.850158 0.000000
vt 0.868694 1.000000
vt 0.850158 0.000000
vt 0.778629 0.000000
vt 0.784759 1.000000
vt 0.693368 0.000000
vt 0.693700 1.000000
vt 0.693368 0.000000
vt 0.597947 0.000000
vt 0.597947 1.000000
vt 0.500000 0.000000
vt 0.500000 1.000000
vt 1.000000 0.000000
vt 1.000000 1.000000
vt 0.055519 1.000000
vt 0.131306 1.000000
vt 0.149842 0.000000
vt 0.088039 0.000000
vt 0.149842 0.000000
vt 0.215241 1.000000
vt 0.221371 0.000000
vt 0.306300 1.000000
vt 0.306632 0.000000
vt 0.306632 0.000000
vt 0.402053 1.000000
vt 0.402053 0.000000
vt 0.000000 0.000000
vt 0.000000 1.000000
s 1
f 16/1/16 9/2/9 7/3/7 15/4/15
f 10/2/10 16/1/16 15/4/15 8/5/8
f 15/4/15 7/3/7 5/6/5 14/7/14
f 8/5/8 15/4/15 14/7/14 6/6/6
f 14/7/14 5/6/5 3/8/3 13/9/13
f 6/6/6 14/7/14 13/9/13 4/10/4
f 13/9/13 3/8/3 1/11/1 12/12/12
f 4/10/4 13/9/13 12/12/12 2/11/2
f 12/12/12 1/11/1 19/13/19 32/14/32
f 2/11/2 12/12/12 32/14/32 20/13/20
f 17/15/17 11/16/11 16/1/16 10/2/10
f 9/2/9 16/1/16 11/16/11 18/15/18
f 37/17/37 36/18/36 27/19/27 29/20/29
f 30/20/30 28/21/28 36/18/36 37/17/37
f 36/18/36 35/22/35 25/23/25 27/19/27
f 28/21/28 26/23/26 35/22/35 36/18/36
f 35/22/35 34/24/34 23/25/23 25/23/25
f 26/23/26 24/26/24 34/24/34 35/22/35
f 34/24/34 33/27/33 21/28/21 23/25/23
f 24/26/24 22/28/22 33/27/33 34/24/34
f 33/27/33 32/14/32 19/13/19 21/28/21
f 22/28/22 20/13/20 32/14/32 33/27/33
f 38/29/38 30/20/30 37/17/37 31/30/31
f 29/20/29 39/29/39 31/30/31 37/17/37
